<svg width="165" height="40" viewBox="0 0 165 40" fill="none" xmlns="http://www.w3.org/2000/svg">
<path d="M40.8719 0L0 20.0172L40.8948 40L20.8542 20.0057L40.8719 0Z" fill="#00C1E6"/>
<path d="M40.8721 0L81.7669 19.9828L40.895 40L60.9127 19.9943L40.8721 0Z" fill="#00C1E6"/>
<path d="M140.845 19.2961C140.88 20.5406 140.542 21.7669 139.874 22.8185C139.207 23.8701 138.241 24.6991 137.1 25.1997C135.959 25.7003 134.694 25.8497 133.468 25.6288C132.241 25.4079 131.109 24.8268 130.214 23.9596C129.32 23.0925 128.705 21.9787 128.447 20.7606C128.19 19.5426 128.302 18.2755 128.769 17.1214C129.236 15.9672 130.037 14.9784 131.07 14.2812C132.103 13.584 133.32 13.2102 134.566 13.2074C136.204 13.195 137.78 13.8267 138.955 14.9661C140.13 16.1054 140.809 17.6608 140.845 19.2961ZM140.777 11.1016V13.2875C139.115 11.6349 136.865 10.7087 134.52 10.7124C133.402 10.7124 132.295 10.9324 131.262 11.3597C130.229 11.7871 129.291 12.4134 128.5 13.2031C127.71 13.9927 127.083 14.9301 126.655 15.9618C126.227 16.9935 126.007 18.0993 126.007 19.216C126.007 20.3327 126.227 21.4385 126.655 22.4702C127.083 23.5019 127.71 24.4393 128.5 25.229C129.291 26.0186 130.229 26.645 131.262 27.0723C132.295 27.4996 133.402 27.7196 134.52 27.7196C135.68 27.733 136.83 27.5174 137.906 27.0853C138.981 26.6532 139.961 26.0131 140.788 25.2017C140.788 26.6323 140.788 31.6566 134.635 31.6566C132.498 31.6675 130.414 30.9936 128.688 29.7339L128.551 32.6066C130.417 33.6227 132.509 34.154 134.635 34.1516C135.796 34.2092 136.956 34.0365 138.05 33.6436C139.143 33.2507 140.148 32.6454 141.006 31.8627C141.783 31.0269 142.386 30.0449 142.779 28.974C143.173 27.9031 143.349 26.7647 143.297 25.6252V11.1016H140.777Z" fill="black"/>
<path d="M162.559 19.2847C162.595 20.5295 162.259 21.757 161.594 22.81C160.928 23.8631 159.963 24.6939 158.822 25.1962C157.681 25.6986 156.416 25.8497 155.189 25.6301C153.962 25.4106 152.828 24.8304 151.932 23.9637C151.037 23.0971 150.421 21.9834 150.162 20.765C149.904 19.5467 150.015 18.2791 150.482 17.1242C150.949 15.9694 151.75 14.9799 152.783 14.2821C153.815 13.5844 155.033 13.2102 156.28 13.2074C157.916 13.192 159.493 13.8212 160.668 14.9587C161.844 16.0962 162.523 17.6504 162.559 19.2847ZM162.49 11.0901V13.2761C161.667 12.4594 160.691 11.8126 159.617 11.3727C158.544 10.9328 157.394 10.7085 156.234 10.7124C155.09 10.6705 153.95 10.8593 152.881 11.2675C151.813 11.6756 150.837 12.2948 150.013 13.0881C149.189 13.8813 148.534 14.8323 148.086 15.8842C147.639 16.9361 147.408 18.0673 147.408 19.2103C147.408 20.3533 147.639 21.4845 148.086 22.5364C148.534 23.5883 149.189 24.5393 150.013 25.3325C150.837 26.1257 151.813 26.7449 152.881 27.1531C153.95 27.5613 155.09 27.7501 156.234 27.7082C157.393 27.711 158.542 27.485 159.614 27.043C160.685 26.6011 161.659 25.952 162.479 25.133C162.479 26.5637 162.479 31.588 156.326 31.588C154.187 31.6103 152.099 30.9353 150.379 29.6652L150.241 32.5493C152.111 33.5551 154.202 34.0821 156.326 34.083C157.486 34.1405 158.647 33.9678 159.74 33.5749C160.834 33.1821 161.839 32.5768 162.697 31.794C163.474 30.9586 164.078 29.9767 164.471 28.9057C164.865 27.8347 165.04 26.6961 164.988 25.5565V11.0901H162.49Z" fill="black"/>
<path d="M86.3047 5.13877V7.59943H94.4974V28.8298H97.0297L97.0182 7.59943L105.199 7.58798V5.13877H86.3047Z" fill="black"/>
<path d="M113.541 26.7926C112.196 26.8174 110.873 26.4426 109.741 25.7156C108.609 24.9887 107.719 23.9424 107.183 22.7094C106.647 21.4764 106.49 20.1122 106.731 18.7898C106.972 17.4674 107.601 16.2463 108.538 15.2815C109.475 14.3166 110.678 13.6514 111.994 13.3702C113.31 13.089 114.68 13.2044 115.93 13.7019C117.18 14.1994 118.255 15.0564 119.017 16.1645C119.778 17.2725 120.194 18.5815 120.21 19.9256C120.246 20.8195 120.099 21.7114 119.779 22.5471C119.46 23.3828 118.973 24.1448 118.349 24.787C117.726 25.4292 116.978 25.9381 116.151 26.2829C115.325 26.6276 114.437 26.801 113.541 26.7926ZM113.541 10.7697C111.698 10.7584 109.893 11.2948 108.356 12.3109C106.819 13.3269 105.619 14.7767 104.909 16.4757C104.199 18.1747 104.01 20.0463 104.368 21.8524C104.726 23.6585 105.613 25.3176 106.917 26.6186C108.221 27.9197 109.884 28.804 111.692 29.159C113.501 29.514 115.374 29.3237 117.075 28.6123C118.775 27.901 120.225 26.7007 121.24 25.164C122.255 23.6274 122.79 21.8239 122.777 19.9828C122.803 18.7647 122.582 17.5538 122.128 16.4232C121.673 15.2926 120.993 14.2658 120.13 13.4048C119.267 12.5438 118.238 11.8663 117.106 11.4134C115.973 10.9605 114.761 10.7415 113.541 10.7697Z" fill="black"/>
</svg>
